<svg xmlns="http://www.w3.org/2000/svg" width="256" height="256" viewBox="0 0 100 100"><rect width="100" height="100" rx="20" fill="#ffffff"></rect><path d="M6.46 24.92L45.73 24.92L45.73 30.63L29.53 30.63L29.53 75.08L22.74 75.08L22.74 30.63L6.46 30.63L6.46 24.92ZM56.37 24.92L56.37 24.92Q57.28 24.92 57.72 25.15Q58.16 25.38 58.72 26.08L58.72 26.08L87.77 63.88Q87.66 62.97 87.63 62.11Q87.59 61.25 87.59 60.45L87.59 60.45L87.59 24.92L93.54 24.92L93.54 75.08L90.11 75.08Q89.31 75.08 88.76 74.80Q88.22 74.52 87.70 73.85L87.70 73.85L58.68 36.09Q58.75 36.96 58.79 37.80Q58.82 38.64 58.82 39.34L58.82 39.34L58.82 75.08L52.87 75.08L52.87 24.92L56.37 24.92Z" fill="#000000"></path></svg>